HIERARCHY
ROOT butt
{
	OFFSET 0.000000 0.000000 0.000000
	CHANNELS 6 Xposition Yposition Zposition Xrotation Yrotation Zrotation
	JOINT lhip
	{
		OFFSET 0.583813 0.718669 -0.323938
		CHANNELS 6 Xposition Yposition Zposition Xrotation Yrotation Zrotation
		JOINT lknee
		{
			OFFSET 0.553245 0.216339 -1.020714
			CHANNELS 6 Xposition Yposition Zposition Xrotation Yrotation Zrotation
			JOINT lankle
			{
				OFFSET -0.339279 0.080945 -1.465530
				CHANNELS 6 Xposition Yposition Zposition Xrotation Yrotation Zrotation
				End Site
				{
					OFFSET 0.537810 -0.043777 -0.195635
				}
			}
		}
	}
	JOINT rhip
	{
		OFFSET 0.339136 -0.940503 -0.149914
		CHANNELS 6 Xposition Yposition Zposition Xrotation Yrotation Zrotation
		JOINT rknee
		{
			OFFSET 0.601234 -0.223249 -1.073499
			CHANNELS 6 Xposition Yposition Zposition Xrotation Yrotation Zrotation
			JOINT rankle
			{
				OFFSET -0.245263 -0.041399 -1.532960
				CHANNELS 6 Xposition Yposition Zposition Xrotation Yrotation Zrotation
				End Site
				{
					OFFSET 0.653910 0.024899 -0.232875
				}
			}
		}
	}
	JOINT abdomen
	{
		OFFSET 0.907647 0.026340 0.317664
		CHANNELS 6 Xposition Yposition Zposition Xrotation Yrotation Zrotation
		JOINT neck
		{
			OFFSET 1.496963 0.039292 -0.038456
			CHANNELS 6 Xposition Yposition Zposition Xrotation Yrotation Zrotation
			End Site
			{
				OFFSET 2.739308 -0.092250 1.009232
			}
		}
		JOINT lshldr
		{
			OFFSET 1.132326 0.559775 -0.444207
			CHANNELS 6 Xposition Yposition Zposition Xrotation Yrotation Zrotation
			JOINT lelbow
			{
				OFFSET -0.149559 0.286290 -0.912030
				CHANNELS 6 Xposition Yposition Zposition Xrotation Yrotation Zrotation
				JOINT lwrist
				{
					OFFSET 0.485181 -0.390159 0.265472
					CHANNELS 6 Xposition Yposition Zposition Xrotation Yrotation Zrotation
					End Site
					{
						OFFSET 0.527290 -0.521758 -0.124363
					}
				}
			}
		}
		JOINT rshldr
		{
			OFFSET 1.100885 -0.503887 -0.296241
			CHANNELS 6 Xposition Yposition Zposition Xrotation Yrotation Zrotation
			JOINT relbow
			{
				OFFSET -0.198937 -0.642069 -0.689888
				CHANNELS 6 Xposition Yposition Zposition Xrotation Yrotation Zrotation
				JOINT rwrist
				{
					OFFSET 0.636091 0.394674 0.001069
					CHANNELS 6 Xposition Yposition Zposition Xrotation Yrotation Zrotation
					End Site
					{
						OFFSET 0.557086 0.133476 -0.377524
					}
				}
			}
		}
	}
}
MOTION
Frames: 7
Frame Time: 0.033333
0.000000 -2.407310 -0.164250 -0.123587 -4.427958 7.388148 0.583813 0.718669 -0.323938 6.150916 -4.616117 -5.245501 0.553245 0.216339 -1.020714 -29.145483 47.485869 36.887034 -0.339279 0.080945 -1.465530 -0.194410 -11.683509 -0.163095 0.339136 -0.940503 -0.149914 -15.899190 -4.859629 -73.444662 0.601234 -0.223249 -1.073499 -28.233885 15.388817 73.947992 -0.245263 -0.041398 -1.532960 2.448142 -28.242675 0.960502 0.907647 0.026340 0.317664 10.939290 15.238359 2.082526 1.496964 0.039292 -0.038456 -22.231115 6.999901 -6.909185 1.132326 0.559775 -0.444207 -37.866869 -18.781668 -15.281633 -0.149559 0.286290 -0.912030 24.830126 13.980656 -38.167104 0.485181 -0.390159 0.265472 -0.360505 2.449622 -34.363809 1.100885 -0.503887 -0.296241 49.779091 -40.231768 29.429130 -0.198937 -0.642069 -0.689888 9.385133 4.995016 30.731524 0.636091 0.394674 0.001069 41.275383 -35.430001 98.009513 
0.000000 -2.488630 -0.151280 -0.536226 -4.371224 9.428178 0.583813 0.718669 -0.323938 4.833624 0.703382 -5.581459 0.553245 0.216339 -1.020714 -24.965468 42.863808 32.251825 -0.339279 0.080945 -1.465531 -0.408261 -9.447701 -0.110370 0.339136 -0.940503 -0.149914 -15.718799 -5.411121 -75.841034 0.601234 -0.223249 -1.073499 -27.618421 15.199210 73.949495 -0.245263 -0.041399 -1.532961 2.331330 -26.288840 0.860521 0.907647 0.026340 0.317664 10.897785 13.740047 0.365479 1.496964 0.039292 -0.038456 -22.285178 7.801673 -6.481447 1.132326 0.559775 -0.444207 -37.282745 -18.182618 -18.708163 -0.149559 0.286290 -0.912030 23.396813 13.174955 -38.231103 0.485181 -0.390159 0.265472 0.354841 2.062326 -33.764149 1.100885 -0.503887 -0.296241 50.904553 -41.912414 26.070057 -0.198937 -0.642069 -0.689888 10.197579 4.747888 31.460401 0.636091 0.394674 0.001069 39.956152 -33.671538 98.173171 
0.000000 -2.574940 -0.141760 -1.008375 -3.842897 12.874887 0.583813 0.718669 -0.323938 3.212322 4.017852 -8.401145 0.553245 0.216339 -1.020714 -20.553571 37.035796 28.082316 -0.339279 0.080945 -1.465531 -3.066853 -6.597652 0.237486 0.339136 -0.940503 -0.149914 -15.878149 -5.693256 -79.925528 0.601234 -0.223249 -1.073499 -26.852658 14.948612 74.709962 -0.245263 -0.041399 -1.532960 2.227534 -24.192481 0.752803 0.907647 0.026340 0.317664 10.378432 12.023845 -1.102265 1.496964 0.039292 -0.038456 -21.687097 8.351867 -7.182252 1.132326 0.559775 -0.444207 -37.686559 -17.649342 -24.240126 -0.149559 0.286290 -0.912030 21.187873 12.118851 -38.052353 0.485181 -0.390159 0.265472 1.498541 1.516690 -33.678372 1.100885 -0.503887 -0.296241 51.189020 -45.634294 20.757100 -0.198937 -0.642069 -0.689888 10.398928 4.998355 32.396465 0.636091 0.394674 0.001069 38.929394 -32.618330 98.894767 
0.000000 -2.668340 -0.136070 -1.820943 -2.620106 17.433942 0.583813 0.718669 -0.323938 1.503412 4.956238 -14.246386 0.553245 0.216339 -1.020714 -16.322257 30.723550 26.296397 -0.339279 0.080945 -1.465531 -10.283517 -4.891848 1.378352 0.339136 -0.940504 -0.149914 -15.945748 -6.502346 -83.897106 0.601233 -0.223249 -1.073499 -26.228895 14.755582 74.673755 -0.245263 -0.041399 -1.532960 2.476901 -22.243168 0.714223 0.907647 0.026339 0.317664 9.459989 10.022684 -2.682993 1.496963 0.039292 -0.038456 -20.240538 8.706703 -8.807664 1.132326 0.559775 -0.444207 -38.974265 -16.783354 -30.936864 -0.149559 0.286290 -0.912030 20.039585 11.402530 -38.388528 0.485181 -0.390158 0.265472 3.172244 0.734794 -33.772594 1.100885 -0.503887 -0.296241 49.771944 -50.073227 13.973389 -0.198937 -0.642069 -0.689888 7.211828 7.279677 33.334680 0.636091 0.394674 0.001069 43.599010 -34.521265 103.575926 
-0.000000 -2.766930 -0.133670 -2.820681 -1.139484 21.890867 0.583813 0.718669 -0.323938 0.190187 4.167210 -20.201487 0.553245 0.216339 -1.020714 -12.956603 25.445760 27.577649 -0.339279 0.080945 -1.465531 -13.605920 -7.644624 1.137670 0.339136 -0.940504 -0.149914 -16.326918 -8.056638 -86.668605 0.601234 -0.223249 -1.073499 -26.097412 14.718298 74.361021 -0.245263 -0.041399 -1.532960 3.134469 -20.941891 0.746320 0.907647 0.026340 0.317664 8.099802 8.766275 -3.963462 1.496964 0.039291 -0.038456 -18.033344 8.362720 -11.015801 1.132326 0.559775 -0.444207 -40.950160 -15.809941 -37.716899 -0.149559 0.286290 -0.912030 20.916616 11.207799 -39.867329 0.485181 -0.390159 0.265472 4.142194 0.270001 -33.513628 1.100885 -0.503887 -0.296241 48.528627 -53.650395 7.913535 -0.198937 -0.642069 -0.689888 6.510938 7.672194 33.241516 0.636091 0.394674 0.001069 46.192935 -35.334276 107.456764 
0.000000 -2.863780 -0.137120 -3.347192 -0.456736 25.601298 0.583813 0.718669 -0.323938 -0.726048 2.916599 -24.290593 0.553245 0.216339 -1.020714 -10.992886 22.056491 28.495961 -0.339279 0.080945 -1.465530 -13.150004 -10.398593 0.399178 0.339136 -0.940503 -0.149914 -17.279136 -9.562030 -88.511390 0.601234 -0.223249 -1.073499 -26.674522 14.907381 73.848893 -0.245263 -0.041400 -1.532960 3.708639 -19.835276 0.742295 0.907647 0.026340 0.317664 6.539866 9.649691 -5.913391 1.496964 0.039292 -0.038456 -15.636205 7.093712 -12.442163 1.132326 0.559775 -0.444207 -42.680561 -15.646020 -42.682644 -0.149559 0.286290 -0.912030 21.632719 10.603241 -42.038155 0.485181 -0.390159 0.265472 4.179004 0.270676 -34.196640 1.100885 -0.503887 -0.296241 49.890902 -55.976020 5.863635 -0.198937 -0.642069 -0.689888 7.486513 6.823751 32.441250 0.636091 0.394674 0.001069 47.603164 -35.561465 110.070568 
-0.000000 -2.958600 -0.142220 -3.529795 -0.355722 27.994135 0.583813 0.718669 -0.323938 -1.189797 1.097879 -25.774504 0.553245 0.216339 -1.020714 -10.390471 20.696030 27.731750 -0.339279 0.080945 -1.465530 -11.813616 -12.452481 -0.127533 0.339136 -0.940503 -0.149914 -18.666473 -11.279056 -89.276460 0.601234 -0.223249 -1.073499 -27.784723 15.243603 74.292794 -0.245263 -0.041399 -1.532961 5.239284 -17.992731 0.741399 0.907647 0.026340 0.317664 5.160371 12.083323 -7.536097 1.496964 0.039292 -0.038456 -13.329563 5.444704 -13.290043 1.132326 0.559775 -0.444207 -44.007968 -15.588051 -45.964188 -0.149559 0.286290 -0.912030 21.903098 9.631597 -44.539650 0.485181 -0.390159 0.265472 3.645614 0.549978 -34.952861 1.100885 -0.503887 -0.296241 53.796025 -56.917896 8.030641 -0.198937 -0.642069 -0.689888 9.863568 4.793056 31.021722 0.636091 0.394673 0.001069 48.848287 -34.756125 112.141789 
